<svg id="Layer_1" data-name="Layer 1" xmlns="http://www.w3.org/2000/svg" viewBox="0 0 728.89 136.91"><defs><style>.cls-1,.cls-3{fill:#74943d;}.cls-1,.cls-2{fill-rule:evenodd;}.cls-2,.cls-4{fill:#e1b13a;}</style></defs><path class="cls-1" d="M313.84,202.07h14.82V123.63h-17l-24.58,33.72-24.58-33.72H245.5v78.44h14.81V145l25,34.18h2.92l25.58-34.07v56.92Zm72.27-47.69c-3.14-5.5-10.21-9-17.62-9-16.16-.11-28.84,9.87-28.84,28.95,0,19.42,12.12,29.52,28.51,29.4,6.17-.11,14.81-3.25,17.95-9.76l.68,8.08h12.9V146.75H386.56l-.45,7.63Zm-16.38,3.25c21.55,0,21.55,33.56,0,33.56-9.09,0-16.39-6.29-16.39-16.84s7.3-16.72,16.39-16.72Zm55.21-11.11v55.55H411.25V146.52ZM410,131.15c0,10.66,16.16,10.66,16.16,0s-16.16-10.67-16.16,0Zm81.7,70.92V173c0-17.4-10.44-27.16-23.46-27.16-7,0-12.57,2.8-18.18,8.3l-.9-7.52H437v55.44h13.58V173.79c0-8.42,5.72-15.49,14.14-15.49,8.75,0,13.35,6.4,13.35,14.82v28.95Zm42.64-78.67H503.5v78.67h30.86c27.49,0,39.62-20.09,39.28-40-.34-19.47-12.35-38.66-39.28-38.66Zm-16.16,14h16.16c17.06,0,24.24,12.25,24.58,24.52.33,12.83-6.74,25.87-24.58,25.87H518.2V137.43Zm108.74,16.95c-3.14-5.5-10.21-9-17.61-9-16.16-.11-28.85,9.87-28.85,28.95,0,19.42,12.13,29.52,28.51,29.4,6.17-.11,14.81-3.25,18-9.76l.68,8.08h12.9V146.75H627.39l-.45,7.63Zm-16.38,3.25c21.55,0,21.55,33.56,0,33.56-9.09,0-16.38-6.29-16.38-16.84s7.29-16.72,16.38-16.72Zm44.78-25v14.26H645v11.78h10.33v23.9c0,13.81,7.85,20.65,19.86,20.2a30.6,30.6,0,0,0,11.34-2.35l-3.82-11.67a15.64,15.64,0,0,1-6.62,1.68c-4.27,0-7.18-2.58-7.18-7.86v-23.9h15.37V146.86H669V131.15l-13.69,1.45Zm82.59,21.78c-3.14-5.5-10.21-9-17.61-9-16.17-.11-28.85,9.87-28.85,28.95,0,19.42,12.12,29.52,28.51,29.4,6.17-.11,14.81-3.25,17.95-9.76l.68,8.08h12.9V146.75H738.38l-.45,7.63Zm-16.38,3.25c21.55,0,21.55,33.56,0,33.56-9.09,0-16.39-6.29-16.39-16.84S712.46,157.63,721.55,157.63Z" transform="translate(-64.11 -123.15)"/><path class="cls-2" d="M418.92,222.19a22.23,22.23,0,0,0-15.65-6.45c-14.88,0-22.29,11-22.29,22.83,0,11.08,6.45,21.49,22.29,21.49a21,21,0,0,0,16.8-7.58V234.71H402v7.11h10.78v7.46a14,14,0,0,1-9.51,3.38c-10.48,0-14.52-7.17-14.52-14.09,0-8.68,5.48-15.54,14.52-15.54A16.14,16.14,0,0,1,414,227.25l4.94-5.06Zm48.66,36.37-12.77-14.39c8-1.63,10.66-7.47,10.66-13.28,0-7.32-5.24-13.94-15.17-14-6.69.06-13.37,0-20.05,0V259.1h7.94V245h7.65l12.28,14.09h9.46v-.54ZM450.3,224.29c5,0,7.22,3.39,7.22,6.78s-2.16,6.77-7.22,6.77H438.19V224.29Zm44.56-8.18c-14.57,0-21.68,11.14-21.68,22.22s6.87,21.73,21.68,21.73,21.5-10.9,21.62-21.79-7.11-22.16-21.62-22.16Zm0,7.22c9.94,0,13.91,7.95,13.79,15.06-.12,6.92-3.85,14.39-13.79,14.39s-13.67-7.41-13.85-14.33c-.18-7.11,3.91-15.12,13.85-15.12ZM555.62,217v24.14c0,7.23-3.73,11.63-10.3,11.63s-10.89-4-10.89-11.63V217h-7.89v24.14c0,12.71,8.61,18.85,18.72,18.85,10.6,0,18.25-6.38,18.25-18.85V217Zm27.82,7.47h11.93c10.11,0,10.17,14.93,0,14.93H583.44V224.48Zm11.93-7.59c-6.63-.06-13.25,0-19.87,0V259.1h7.94V246.69h11.93C616,246.69,616,216.89,595.37,216.89Z" transform="translate(-64.11 -123.15)"/><path class="cls-2" d="M248,235.47H368.52v5.11H248v-5.11Zm380.52,0H749v5.11H628.5Z" transform="translate(-64.11 -123.15)"/><path class="cls-3" d="M120.22,123.25a9.29,9.29,0,0,0-6.6,2.73L66.84,172.75a9.39,9.39,0,0,0,0,13.22l46.78,46.77a9.36,9.36,0,0,0,13.21,0l12.81-12.8-13.29-13.29-6.13,6.12L86.81,179.36,120.22,146l33.42,33.41-6.13,6.13,13.29,13.29L173.61,186a9.39,9.39,0,0,0,0-13.22L126.83,126A9.31,9.31,0,0,0,120.22,123.25Z" transform="translate(-64.11 -123.15)"/><path class="cls-4" d="M166.39,235.47a9.33,9.33,0,0,0,6.61-2.73L219.77,186a9.37,9.37,0,0,0,0-13.22L173,126a9.37,9.37,0,0,0-13.22,0L147,138.79l13.29,13.28,6.13-6.12,33.41,33.41-33.41,33.41L133,179.36l6.13-6.13-13.29-13.29L113,172.75A9.39,9.39,0,0,0,113,186l46.78,46.77A9.31,9.31,0,0,0,166.39,235.47Z" transform="translate(-64.11 -123.15)"/><path class="cls-3" d="M770,124.15h9.48v2.06H776v7.9h-2.69v-7.9H770Zm20.52,10,0-5.69-3,4.66h-1.2l-3-4.51v5.54h-2.52v-10h2.21l4,6,3.89-6H793l0,10Z" transform="translate(-64.11 -123.15)"/></svg>